{
  "asset": {
    "version": "2.0",
    "generator": "THREE.GLTFExporter"
  },
  "scenes": [
    {
      "name": "AuxScene",
      "nodes": [
        9
      ]
    }
  ],
  "scene": 0,
  "nodes": [
    {
      "name": "Куб001",
      "extras": {
        "name": "Куб001"
      },
      "mesh": 0
    },
    {
      "name": "Куб001_1",
      "extras": {
        "name": "Куб001_1"
      },
      "mesh": 1
    },
    {
      "name": "Куб",
      "extras": {
        "name": "Куб"
      },
      "children": [
        0,
        1
      ]
    },
    {
      "matrix": [
        0.05934374779462814,
        0,
        0,
        0,
        0,
        -7.973358097181005e-9,
        0.05934375576798624,
        0,
        0,
        -0.05934375576798624,
        -7.973358097181005e-9,
        0,
        0,
        0.06528203189373016,
        -0.3504733443260193,
        1
      ],
      "name": "Сфера",
      "extras": {
        "name": "Сфера"
      },
      "mesh": 2
    },
    {
      "matrix": [
        0.008063852439167407,
        0.017292970729357603,
        0,
        0,
        -0.017292970729357603,
        0.008063852439167407,
        0,
        0,
        0,
        0,
        0.019080685451626778,
        0,
        -0.002113077789545059,
        0.06706611812114716,
        -0.4995938837528229,
        1
      ],
      "name": "Окружность001",
      "extras": {
        "name": "Окружность.001"
      },
      "mesh": 3
    },
    {
      "matrix": [
        0.024616822600364685,
        0,
        0,
        0,
        0,
        -0.01988571840835014,
        0.6705910825560033,
        0,
        0,
        -0.024606006294470555,
        -0.0007296668939600292,
        0,
        -0.45306795835494995,
        -0.03839123249053955,
        -0.7022444605827332,
        1
      ],
      "name": "Цилиндр",
      "extras": {
        "name": "Цилиндр"
      },
      "mesh": 4
    },
    {
      "matrix": [
        -0.02704191376269513,
        0.027041912417447432,
        -2.975529092941183e-10,
        0,
        2.6646589443795586e-9,
        2.1643588911096537e-9,
        -0.04366026741585292,
        0,
        0.027041912070774988,
        0.027041913433443854,
        2.9858520864255565e-9,
        0,
        -0.6564310193061829,
        -0.159068763256073,
        0.24489977955818176,
        1
      ],
      "name": "Сфера002",
      "extras": {
        "name": "Сфера.002"
      }
    },
    {
      "matrix": [
        0.003748850431293249,
        0,
        0,
        0,
        0,
        -1.866756209976036e-8,
        0.1389381029122902,
        0,
        0,
        -0.003748850934984506,
        -5.036912564996415e-10,
        0,
        0,
        -0.19825682044029236,
        1.4010851383209229,
        1
      ],
      "name": "Цилиндр001",
      "extras": {
        "name": "Цилиндр.001"
      }
    },
    {
      "name": "uavglb",
      "extras": {
        "name": "uav.glb"
      },
      "children": [
        2,
        3,
        4,
        5,
        6,
        7
      ]
    },
    {
      "name": "uav.glb",
      "children": [
        8
      ]
    }
  ],
  "bufferViews": [
    {
      "buffer": 0,
      "byteOffset": 0,
      "byteLength": 40428,
      "target": 34962,
      "byteStride": 12
    },
    {
      "buffer": 0,
      "byteOffset": 40428,
      "byteLength": 40428,
      "target": 34962,
      "byteStride": 12
    },
    {
      "buffer": 0,
      "byteOffset": 80856,
      "byteLength": 26952,
      "target": 34962,
      "byteStride": 8
    },
    {
      "buffer": 0,
      "byteOffset": 107808,
      "byteLength": 26952,
      "target": 34962,
      "byteStride": 8
    },
    {
      "buffer": 0,
      "byteOffset": 134760,
      "byteLength": 10692,
      "target": 34963
    },
    {
      "buffer": 0,
      "byteOffset": 145452,
      "byteLength": 852,
      "target": 34962,
      "byteStride": 12
    },
    {
      "buffer": 0,
      "byteOffset": 146304,
      "byteLength": 852,
      "target": 34962,
      "byteStride": 12
    },
    {
      "buffer": 0,
      "byteOffset": 147156,
      "byteLength": 568,
      "target": 34962,
      "byteStride": 8
    },
    {
      "buffer": 0,
      "byteOffset": 147724,
      "byteLength": 568,
      "target": 34962,
      "byteStride": 8
    },
    {
      "buffer": 0,
      "byteOffset": 148292,
      "byteLength": 248,
      "target": 34963
    },
    {
      "buffer": 0,
      "byteOffset": 148540,
      "byteLength": 5952,
      "target": 34962,
      "byteStride": 12
    },
    {
      "buffer": 0,
      "byteOffset": 154492,
      "byteLength": 5952,
      "target": 34962,
      "byteStride": 12
    },
    {
      "buffer": 0,
      "byteOffset": 160444,
      "byteLength": 3968,
      "target": 34962,
      "byteStride": 8
    },
    {
      "buffer": 0,
      "byteOffset": 164412,
      "byteLength": 1440,
      "target": 34963
    },
    {
      "buffer": 0,
      "byteOffset": 165852,
      "byteLength": 32640,
      "target": 34962,
      "byteStride": 12
    },
    {
      "buffer": 0,
      "byteOffset": 198492,
      "byteLength": 32640,
      "target": 34962,
      "byteStride": 12
    },
    {
      "buffer": 0,
      "byteOffset": 231132,
      "byteLength": 21760,
      "target": 34962,
      "byteStride": 8
    },
    {
      "buffer": 0,
      "byteOffset": 252892,
      "byteLength": 8232,
      "target": 34963
    },
    {
      "buffer": 0,
      "byteOffset": 261124,
      "byteLength": 185160,
      "target": 34962,
      "byteStride": 12
    },
    {
      "buffer": 0,
      "byteOffset": 446284,
      "byteLength": 185160,
      "target": 34962,
      "byteStride": 12
    },
    {
      "buffer": 0,
      "byteOffset": 631444,
      "byteLength": 123440,
      "target": 34962,
      "byteStride": 8
    },
    {
      "buffer": 0,
      "byteOffset": 754884,
      "byteLength": 46368,
      "target": 34963
    }
  ],
  "buffers": [
    {
      "byteLength": 801252,
      "uri": "data:application/octet-stream;base64,"
    }
  ],
  "accessors": [
    {
      "bufferView": 0,
      "componentType": 5126,
      "count": 3369,
      "max": [
        2.36439847946167,
        0.14692658185958862,
        1.2798720598220825
      ],
      "min": [
        -2.36439847946167,
        -0.2211611270904541,
        -0.4661296010017395
      ],
      "type": "VEC3"
    },
    {
      "bufferView": 1,
      "componentType": 5126,
      "count": 3369,
      "max": [
        1,
        1,
        1
      ],
      "min": [
        -1,
        -0.9999995231628418,
        -1
      ],
      "type": "VEC3"
    },
    {
      "bufferView": 2,
      "componentType": 5126,
      "count": 3369,
      "max": [
        0.8750000596046448,
        1.0003255605697632
      ],
      "min": [
        -0.0003735536301974207,
        0
      ],
      "type": "VEC2"
    },
    {
      "bufferView": 3,
      "componentType": 5126,
      "count": 3369,
      "max": [
        2.861842155456543,
        1.7757130861282349
      ],
      "min": [
        -1.861842155456543,
        0.034552156925201416
      ],
      "type": "VEC2"
    },
    {
      "bufferView": 4,
      "componentType": 5123,
      "count": 5346,
      "max": [
        3368
      ],
      "min": [
        0
      ],
      "type": "SCALAR"
    },
    {
      "bufferView": 5,
      "componentType": 5126,
      "count": 71,
      "max": [
        0.07675416022539139,
        0.1414409577846527,
        -0.43943455815315247
      ],
      "min": [
        -0.07675416022539139,
        -0.010080009698867798,
        -0.44935643672943115
      ],
      "type": "VEC3"
    },
    {
      "bufferView": 6,
      "componentType": 5126,
      "count": 71,
      "max": [
        0.7493153214454651,
        0.06794854253530502,
        -0.533583402633667
      ],
      "min": [
        -0.7493167519569397,
        -0.7014145851135254,
        -0.9998123645782471
      ],
      "type": "VEC3"
    },
    {
      "bufferView": 7,
      "componentType": 5126,
      "count": 71,
      "max": [
        0.7814736366271973,
        1.0198911428451538
      ],
      "min": [
        -0.022329390048980713,
        0.3189242482185364
      ],
      "type": "VEC2"
    },
    {
      "bufferView": 8,
      "componentType": 5126,
      "count": 71,
      "max": [
        0.576754093170166,
        0.5100756883621216
      ],
      "min": [
        0.4232458770275116,
        0.35858434438705444
      ],
      "type": "VEC2"
    },
    {
      "bufferView": 9,
      "componentType": 5123,
      "count": 123,
      "max": [
        70
      ],
      "min": [
        0
      ],
      "type": "SCALAR"
    },
    {
      "bufferView": 10,
      "componentType": 5126,
      "count": 496,
      "max": [
        1,
        -1.632989525794983,
        0.9527458548545837
      ],
      "min": [
        -0.9999999403953552,
        -4.064756870269775,
        -1.0114011764526367
      ],
      "type": "VEC3"
    },
    {
      "bufferView": 11,
      "componentType": 5126,
      "count": 496,
      "max": [
        0.9779906272888184,
        -0.06119922548532486,
        0.9831103682518005
      ],
      "min": [
        -0.9779905676841736,
        -0.9215758442878723,
        -0.9831104278564453
      ],
      "type": "VEC3"
    },
    {
      "bufferView": 12,
      "componentType": 5126,
      "count": 496,
      "max": [
        1,
        1
      ],
      "min": [
        0,
        0.5
      ],
      "type": "VEC2"
    },
    {
      "bufferView": 13,
      "componentType": 5123,
      "count": 720,
      "max": [
        495
      ],
      "min": [
        0
      ],
      "type": "SCALAR"
    },
    {
      "bufferView": 14,
      "componentType": 5126,
      "count": 2720,
      "max": [
        1.543314814567566,
        22.644662857055664,
        1.1397185325622559
      ],
      "min": [
        -1.543312668800354,
        -22.6446590423584,
        -1.0913376808166504
      ],
      "type": "VEC3"
    },
    {
      "bufferView": 15,
      "componentType": 5126,
      "count": 2720,
      "max": [
        0.9967353940010071,
        0.9997777938842773,
        0.9998987317085266
      ],
      "min": [
        -0.9967353343963623,
        -0.9997777938842773,
        -0.999910295009613
      ],
      "type": "VEC3"
    },
    {
      "bufferView": 16,
      "componentType": 5126,
      "count": 2720,
      "max": [
        0,
        1
      ],
      "min": [
        0,
        1
      ],
      "type": "VEC2"
    },
    {
      "bufferView": 17,
      "componentType": 5123,
      "count": 4116,
      "max": [
        2719
      ],
      "min": [
        0
      ],
      "type": "SCALAR"
    },
    {
      "bufferView": 18,
      "componentType": 5126,
      "count": 15430,
      "max": [
        37.71199417114258,
        1.4543312788009644,
        1.581366777420044
      ],
      "min": [
        -0.9023689031600952,
        -1.0142130851745605,
        -18.81770133972168
      ],
      "type": "VEC3"
    },
    {
      "bufferView": 19,
      "componentType": 5126,
      "count": 15430,
      "max": [
        1,
        0.9999896883964539,
        0.9966363906860352
      ],
      "min": [
        -1,
        -0.9999775290489197,
        -0.9962329268455505
      ],
      "type": "VEC3"
    },
    {
      "bufferView": 20,
      "componentType": 5126,
      "count": 15430,
      "max": [
        1,
        1
      ],
      "min": [
        0,
        0
      ],
      "type": "VEC2"
    },
    {
      "bufferView": 21,
      "componentType": 5123,
      "count": 23184,
      "max": [
        15429
      ],
      "min": [
        0
      ],
      "type": "SCALAR"
    }
  ],
  "materials": [
    {
      "pbrMetallicRoughness": {
        "baseColorFactor": [
          0.44305670261383057,
          0.5021944642066956,
          0.5903564095497131,
          1
        ],
        "metallicFactor": 0.04545457661151886,
        "roughnessFactor": 0.07727272808551788
      },
      "doubleSided": true,
      "name": "Metal Paint"
    },
    {
      "pbrMetallicRoughness": {
        "baseColorFactor": [
          0.1042906790971756,
          0.1042906790971756,
          0.1042906790971756,
          1
        ],
        "metallicFactor": 0,
        "roughnessFactor": 0.5
      },
      "doubleSided": true,
      "name": "Материал.008"
    },
    {
      "pbrMetallicRoughness": {
        "baseColorFactor": [
          0.800000011920929,
          0.800000011920929,
          0.800000011920929,
          1
        ],
        "metallicFactor": 0,
        "roughnessFactor": 0.5
      },
      "doubleSided": true,
      "name": "Материал.010"
    }
  ],
  "meshes": [
    {
      "primitives": [
        {
          "mode": 4,
          "attributes": {
            "POSITION": 0,
            "NORMAL": 1,
            "TEXCOORD_0": 2,
            "TEXCOORD_1": 3
          },
          "indices": 4,
          "material": 0
        }
      ]
    },
    {
      "primitives": [
        {
          "mode": 4,
          "attributes": {
            "POSITION": 5,
            "NORMAL": 6,
            "TEXCOORD_0": 7,
            "TEXCOORD_1": 8
          },
          "indices": 9,
          "material": 1
        }
      ]
    },
    {
      "primitives": [
        {
          "mode": 4,
          "attributes": {
            "POSITION": 10,
            "NORMAL": 11,
            "TEXCOORD_0": 12
          },
          "indices": 13,
          "material": 2
        }
      ]
    },
    {
      "primitives": [
        {
          "mode": 4,
          "attributes": {
            "POSITION": 14,
            "NORMAL": 15,
            "TEXCOORD_0": 16
          },
          "indices": 17,
          "material": 1
        }
      ]
    },
    {
      "primitives": [
        {
          "mode": 4,
          "attributes": {
            "POSITION": 18,
            "NORMAL": 19,
            "TEXCOORD_0": 20
          },
          "indices": 21,
          "material": 0
        }
      ]
    }
  ]
}